<?xml version="1.0" standalone="no"?>
<svg xmlns="http://www.w3.org/2000/svg" viewBox="0 0 106.44 36" width="106.44" height="36"><g fill="#ff8686" color="#ff8686" transform="translate(0 3.9999999999999982) scale(0.5490197)"><svg width="51.0" height="51.0" x="0.0" y="0.0" viewBox="0 0 51 51"><path fill="currentColor" fill-rule="evenodd" d="M45.003 46.574c-.674.717-1.56 1.602-2.065 1.813-.295.126-.632.21-.927.042-.843-.464-.042-1.265-.042-1.265s.505-.632 1.053-1.517c1.35-1.98 1.35-4.257-1.559-1.813-4.13 3.541-8.978 5.648-10.958 6.365-.465.169-1.729.548-1.982-.042-.253-.506.885-1.011 1.35-1.18 1.39-.506 4.593-1.855 7.754-4.005.38-.252.085-.421-.295-.168-3.456 2.318-7.418 3.878-9.104 4.468-.421.169-1.517.506-1.854-.042-.338-.548.759-1.012 1.138-1.138 1.517-.548 5.352-2.066 8.683-4.258.252-.21.041-.463-.422-.21-2.614 1.813-5.395 2.95-6.828 3.456-.506.21-1.56.464-1.855-.084-.295-.506.717-.97 1.222-1.138 1.18-.421 3.414-1.391 5.648-2.782.169-.085.085-.548-.379-.253-1.56 1.011-2.908 1.602-2.993 1.644 0 0-1.011.421-1.517.084-.463-.337.295-.759.927-1.095.843-.38 9.569-4.974 8.894-11.634-.38-3.625-1.854-5.269-4.805-8.556l-8.81-8.81c-4.93 5.059-8.808 8.936-8.808 8.936-2.95 3.288-4.426 4.932-4.805 8.557-.675 6.66 8.05 11.253 8.893 11.633.632.295 1.433.758.927 1.095-.506.338-1.517-.083-1.517-.083-.127-.043-1.475-.633-2.993-1.645-.505-.295-.548.127-.379.253 2.234 1.392 4.468 2.318 5.648 2.782.506.211 1.517.633 1.222 1.138-.295.548-1.306.295-1.854.084-1.391-.505-4.173-1.643-6.828-3.455-.464-.295-.675-.043-.422.21 3.288 2.192 7.165 3.71 8.683 4.257.38.126 1.433.59 1.138 1.138-.337.548-1.433.211-1.855.042-1.644-.59-5.648-2.15-9.104-4.467-.38-.254-.674-.127-.295.168 3.161 2.15 6.322 3.499 7.755 4.004.464.169 1.602.675 1.35 1.18-.296.59-1.518.211-1.982.042-1.939-.716-6.786-2.865-10.958-6.364-2.909-2.487-2.909-.21-1.56 1.813.59.884 1.054 1.475 1.054 1.517 0 0 .8.8-.042 1.264-.295.17-.633.084-.928-.042-.505-.21-1.348-1.096-2.065-1.812-2.655-2.993-8.683-11.043-3.54-21.454 2.15-4.341 6.828-8.851 6.828-8.851l9.146-9.105L25.278 0l7.291 7.291 9.147 9.105s4.678 4.51 6.828 8.85c5.142 10.412-.885 18.462-3.54 21.328m-19.726-1.728S9.26 32.918 16.426 26.975c2.36-1.939 6.576-1.011 8.852.927 2.276-1.938 6.448-2.866 8.85-.927 7.166 5.943-8.85 17.871-8.85 17.871"></path></svg></g><path fill="#fe0b01" fill-rule="nonzero" d="M3.07 3.12Q2.52 3.12 2.12 2.66Q1.73 2.21 1.73 1.58L1.73 1.58Q1.73 1.08 2.03 0.79Q2.33 0.50 2.83 0.50L2.83 0.50Q3.38 0.50 3.78 0.96Q4.18 1.42 4.18 2.04L4.18 2.04Q4.18 2.54 3.88 2.83Q3.58 3.12 3.07 3.12L3.07 3.12ZM2.16 15.84L2.16 7.44Q2.16 6.22 1.82 5.63Q1.49 5.04 0.48 5.04L0.48 5.04L0 5.04L0 4.56L2.16 4.56Q3.05 4.56 3.49 4.79Q3.94 5.02 4.13 5.62Q4.32 6.22 4.32 7.44L4.32 7.44L4.32 15.84L2.16 15.84ZM8.33 15.84L8.33 2.88Q8.33 1.66 7.99 1.07Q7.66 0.48 6.65 0.48L6.65 0.48L6.17 0.48L6.17 0L8.33 0Q9.22 0 9.66 0.23Q10.10 0.46 10.30 1.06Q10.49 1.66 10.49 2.88L10.49 2.88L10.49 7.20L17.69 7.20L17.69 0L19.85 0L19.85 12.96Q19.85 14.18 20.18 14.77Q20.52 15.36 21.53 15.36L21.53 15.36L22.01 15.36L22.01 15.84L19.85 15.84Q18.96 15.84 18.52 15.61Q18.07 15.38 17.88 14.78Q17.69 14.18 17.69 12.96L17.69 12.96L17.69 8.16L10.49 8.16L10.49 15.84L8.33 15.84ZM28.30 16.08Q26.66 16.08 25.54 15.30Q24.41 14.52 23.83 13.19Q23.26 11.86 23.26 10.20L23.26 10.20Q23.26 8.57 23.83 7.22Q24.41 5.88 25.50 5.10Q26.59 4.32 28.06 4.32L28.06 4.32Q30.48 4.32 31.67 5.68Q32.86 7.03 32.86 9.60L32.86 9.60L32.81 10.56L25.54 10.56Q25.54 12.58 26.40 13.85Q27.26 15.12 28.78 15.12L28.78 15.12Q29.90 15.12 30.68 14.64Q31.46 14.16 32.14 13.20L32.14 13.20L32.62 13.56Q31.82 14.88 30.77 15.48Q29.71 16.08 28.30 16.08L28.30 16.08ZM25.54 9.60L30.58 9.60Q30.58 7.49 29.95 6.38Q29.33 5.28 28.06 5.28L28.06 5.28Q27.34 5.28 26.76 5.84Q26.18 6.41 25.86 7.39Q25.54 8.38 25.54 9.60L25.54 9.60ZM38.30 16.08Q37.54 16.08 36.74 15.76Q35.95 15.43 35.39 14.69Q34.82 13.94 34.82 12.72L34.82 12.72Q34.82 10.90 36.52 10.13Q38.21 9.36 40.94 9.36L40.94 9.36L41.66 9.36Q41.66 7.01 41.02 6.14Q40.37 5.28 39.14 5.28L39.14 5.28Q38.06 5.28 37.42 5.74Q36.77 6.19 36.50 7.32L36.50 7.32L35.42 7.32Q35.42 6.50 35.52 6.04Q35.62 5.57 36.02 5.16L36.02 5.16Q36.46 4.73 37.45 4.52Q38.45 4.32 39.62 4.32L39.62 4.32Q41.57 4.32 42.70 5.36Q43.82 6.41 43.82 9.36L43.82 9.36L43.82 15.84L42.62 15.84L41.78 14.76L41.66 14.76Q41.23 15.31 40.39 15.70Q39.55 16.08 38.30 16.08L38.30 16.08ZM39.38 15Q40.18 15 40.70 14.62Q41.23 14.23 41.66 13.56L41.66 13.56L41.66 10.32L40.94 10.32Q39.17 10.32 38.14 10.98Q37.10 11.64 37.10 12.72L37.10 12.72Q37.10 13.82 37.76 14.41Q38.42 15 39.38 15L39.38 15ZM47.26 15.84L47.26 2.88Q47.26 1.66 46.92 1.07Q46.58 0.48 45.58 0.48L45.58 0.48L45.10 0.48L45.10 0L47.26 0Q48.14 0 48.59 0.23Q49.03 0.46 49.22 1.06Q49.42 1.66 49.42 2.88L49.42 2.88L49.42 15.84L47.26 15.84ZM56.30 16.08Q54.96 16.08 54.19 15.31Q53.42 14.54 53.42 12.96L53.42 12.96L53.42 5.52L51.74 5.52L51.74 4.56L53.42 4.56L53.42 2.40L54.62 0.96L55.58 0.96L55.58 4.56L58.46 4.56L58.46 5.52L55.58 5.52L55.58 12.96Q55.58 15.12 57.26 15.12L57.26 15.12Q57.84 15.12 58.24 15Q58.63 14.88 59.06 14.64L59.06 14.64L59.30 15.12Q58.75 15.53 58.08 15.80Q57.41 16.08 56.30 16.08L56.30 16.08ZM61.08 15.84L61.08 2.88Q61.08 1.66 60.74 1.07Q60.41 0.48 59.40 0.48L59.40 0.48L58.92 0.48L58.92 0L61.08 0Q61.97 0 62.41 0.23Q62.86 0.46 63.05 1.06Q63.24 1.66 63.24 2.88L63.24 2.88L63.24 5.52Q63.74 5.02 64.55 4.67Q65.35 4.32 66.36 4.32L66.36 4.32Q68.16 4.32 69.30 5.28Q70.44 6.24 70.44 8.64L70.44 8.64L70.44 15.84L68.28 15.84L68.28 8.64Q68.28 6.96 67.52 6.18Q66.77 5.40 65.64 5.40L65.64 5.40Q64.37 5.40 63.24 6.67L63.24 6.67L63.24 15.84L61.08 15.84Z" transform="translate(36, 10.08)"></path></svg>